<svg width="57" height="56" viewBox="0 0 57 56" fill="none" xmlns="http://www.w3.org/2000/svg">
<path d="M27.1 20H20.1C19.5695 20 19.0608 20.2107 18.6858 20.5858C18.3107 20.9609 18.1 21.4696 18.1 22V36C18.1 36.5304 18.3107 37.0391 18.6858 37.4142C19.0608 37.7893 19.5695 38 20.1 38H34.1C34.6304 38 35.1391 37.7893 35.5142 37.4142C35.8893 37.0391 36.1 36.5304 36.1 36V29" stroke="black" stroke-width="2" stroke-linecap="round" stroke-linejoin="round"/>
<path d="M34.6 18.5002C34.9978 18.1024 35.5374 17.8789 36.1 17.8789C36.6626 17.8789 37.2022 18.1024 37.6 18.5002C37.9978 18.8981 38.2213 19.4376 38.2213 20.0002C38.2213 20.5628 37.9978 21.1024 37.6 21.5002L28.1 31.0002L24.1 32.0002L25.1 28.0002L34.6 18.5002Z" stroke="#005AE2" stroke-width="2" stroke-linecap="round" stroke-linejoin="round"/>
<circle cx="28.1" cy="28" r="28" fill="#3284FF" fill-opacity="0.13"/>
</svg>
