<svg width="25" height="25" viewBox="0 0 25 25" fill="none" xmlns="http://www.w3.org/2000/svg">
<path d="M9.45881 8.31594C9.43985 8.54135 9.11185 8.59835 9.00636 8.39456L8.43828 7.29742C8.40154 7.22633 8.32669 7.17883 8.24203 7.17268L6.93478 7.07785C6.69194 7.06025 6.63055 6.75577 6.8501 6.65782L8.0319 6.13049C8.10843 6.09633 8.15971 6.02691 8.16626 5.94829L8.26843 4.7347C8.28739 4.50929 8.61539 4.45229 8.72088 4.65608L9.28896 5.75321C9.3257 5.8243 9.40046 5.87183 9.48521 5.87796L10.7925 5.97279C11.0353 5.99039 11.0967 6.29487 10.8771 6.39282L9.69534 6.92015C9.61872 6.95432 9.56753 7.02373 9.56098 7.10234L9.45881 8.31594Z" fill="white"/>
<path d="M5.70599 9.1442C5.67434 9.25336 5.50749 9.25336 5.47584 9.1442L5.30537 8.55649C5.29436 8.51841 5.26227 8.48867 5.22128 8.47842L4.58821 8.32018C4.47061 8.29079 4.47061 8.13591 4.58821 8.10652L5.22128 7.94828C5.26227 7.93802 5.29436 7.90828 5.30537 7.87021L5.47584 7.28249C5.50749 7.17333 5.67434 7.17333 5.70599 7.28249L5.87646 7.87021C5.88747 7.90828 5.91951 7.93802 5.96055 7.94828L6.59362 8.10652C6.71122 8.13591 6.71122 8.29079 6.59362 8.32018L5.96055 8.47842C5.91951 8.48867 5.88747 8.51841 5.87646 8.55649L5.70599 9.1442Z" fill="white"/>
<path d="M7.88782 12.5202C7.85616 12.6293 7.68931 12.6293 7.65766 12.5202L7.48719 11.9325C7.47618 11.8944 7.4441 11.8646 7.4031 11.8544L6.77003 11.6962C6.65243 11.6668 6.65243 11.5119 6.77003 11.4825L7.4031 11.3243C7.4441 11.314 7.47618 11.2843 7.48719 11.2462L7.65766 10.6585C7.68931 10.5493 7.85616 10.5493 7.88782 10.6585L8.05829 11.2462C8.0693 11.2843 8.10133 11.314 8.14238 11.3243L8.77544 11.4825C8.89305 11.5119 8.89305 11.6668 8.77544 11.6962L8.14238 11.8544C8.10133 11.8646 8.0693 11.8944 8.05829 11.9325L7.88782 12.5202Z" fill="white"/>
<path d="M6.03127 11.1969C6.01017 11.2697 5.89894 11.2697 5.87783 11.1969L5.76419 10.8051C5.75684 10.7797 5.73546 10.7599 5.70813 10.753L5.28608 10.6475C5.20768 10.6279 5.20768 10.5247 5.28608 10.5051L5.70813 10.3996C5.73546 10.3928 5.75684 10.3729 5.76419 10.3476L5.87783 9.95574C5.89894 9.88297 6.01017 9.88297 6.03127 9.95574L6.14492 10.3476C6.15226 10.3729 6.17361 10.3928 6.20098 10.3996L6.62302 10.5051C6.70142 10.5247 6.70142 10.6279 6.62302 10.6475L6.20098 10.753C6.17361 10.7599 6.15226 10.7797 6.14492 10.8051L6.03127 11.1969Z" fill="white"/>
<path d="M11.1222 9.84679C11.101 9.91956 10.9898 9.91956 10.9687 9.84679L10.8551 9.45498C10.8477 9.42959 10.8263 9.40976 10.799 9.40293L10.377 9.29744C10.2986 9.27784 10.2986 9.17459 10.377 9.155L10.799 9.0495C10.8263 9.04267 10.8477 9.02284 10.8551 8.99746L10.9687 8.60564C10.9898 8.53287 11.101 8.53287 11.1222 8.60564L11.2358 8.99746C11.2431 9.02284 11.2645 9.04267 11.2919 9.0495L11.7139 9.155C11.7923 9.17459 11.7923 9.27784 11.7139 9.29744L11.2919 9.40293C11.2645 9.40976 11.2431 9.42959 11.2358 9.45498L11.1222 9.84679Z" fill="white"/>
<path d="M18.3182 18.0029L17.5909 18.6781M8.15777 9.04216L19.9624 19.0876C20.2555 19.337 20.2654 19.7628 19.9843 20.0238V20.0238C19.7043 20.2837 19.2496 20.2776 18.9805 20.0079C14.9047 15.923 7.72842 8.70735 8.15777 9.04216Z" stroke="white"/>
</svg>
